<mxfile host="app.diagrams.net" modified="2024-01-27T13:44:58.697Z" agent="Mozilla/5.0 (Windows NT 10.0; Win64; x64) AppleWebKit/537.36 (KHTML, like Gecko) Chrome/120.0.0.0 Safari/537.36" etag="Ci1eLuPd48xXhnTahWTs" version="23.0.2" type="device">
  <diagram name="Page-1" id="NuzEoxtM3vDET90DoE4I">
    <mxGraphModel dx="819" dy="441" grid="1" gridSize="10" guides="1" tooltips="1" connect="1" arrows="1" fold="1" page="1" pageScale="1" pageWidth="850" pageHeight="1100" math="0" shadow="0">
      <root>
        <mxCell id="0" />
        <mxCell id="1" parent="0" />
        <mxCell id="cb_804eFeliiTUeEBSvf-1" value="FE" style="rounded=1;whiteSpace=wrap;html=1;" vertex="1" parent="1">
          <mxGeometry x="30" y="70" width="180" height="80" as="geometry" />
        </mxCell>
        <mxCell id="cb_804eFeliiTUeEBSvf-2" value="SERVER" style="rounded=1;whiteSpace=wrap;html=1;" vertex="1" parent="1">
          <mxGeometry x="270" y="70" width="180" height="80" as="geometry" />
        </mxCell>
        <mxCell id="cb_804eFeliiTUeEBSvf-3" value="DB" style="rounded=1;whiteSpace=wrap;html=1;" vertex="1" parent="1">
          <mxGeometry x="500" y="70" width="180" height="80" as="geometry" />
        </mxCell>
      </root>
    </mxGraphModel>
  </diagram>
</mxfile>
